<svg width="300" height="300" viewBox="0 0 300 300" fill="none" xmlns="http://www.w3.org/2000/svg">
<rect width="300" height="300" rx="16" fill="#1A1A1A"/>
<mask id="mask0_158_2019" style="mask-type:alpha" maskUnits="userSpaceOnUse" x="52" y="52" width="196" height="196">
<path d="M201.244 197.696C199.741 199.342 198.161 200.913 196.505 202.408L198.899 204.802C200.549 203.298 202.127 201.726 203.634 200.085L201.244 197.696Z" fill="black"/>
<path d="M198.899 204.802C187.795 214.923 173.84 221.374 158.936 223.273L149.636 247.271L140.349 223.29C125.395 221.411 111.388 214.953 100.247 204.802L104.991 200.067C117.23 211.078 133.11 217.17 149.573 217.17C166.036 217.17 181.917 211.078 194.156 200.067L198.899 204.802Z" fill="black"/>
<path d="M247.271 149.636L222.394 159.265C220.58 174.504 214.016 188.784 203.634 200.085L198.899 195.35C210.008 183.124 216.181 167.208 216.221 150.689C216.26 134.169 210.164 118.224 199.113 105.945L203.848 101.21C213.677 111.995 220.051 125.476 222.149 139.917L247.271 149.636Z" fill="black"/>
<path d="M199.131 96.4666L194.397 101.201C182.13 90.0533 166.149 83.8765 149.573 83.8765C132.998 83.8765 117.017 90.0533 104.75 101.201L100.015 96.4666C111.007 86.3664 124.827 79.8726 139.618 77.8579L149.636 52L159.653 77.8579C174.4 79.8971 188.173 86.3893 199.131 96.4666Z" fill="black"/>
<path d="M121.901 183.148L100.247 204.802C98.5976 203.298 97.0193 201.726 95.5125 200.085L117.157 178.44C118.613 180.131 120.199 181.706 121.901 183.148V183.148Z" fill="black"/>
<path d="M117.157 178.441L112.405 183.193C104.505 174.203 100.131 162.655 100.092 150.687C100.054 138.719 104.353 127.143 112.195 118.103L114.58 120.488L116.952 122.859C110.347 130.624 106.737 140.496 106.775 150.69C106.812 160.884 110.495 170.729 117.157 178.445V178.441Z" fill="black"/>
<path d="M199.06 150.527C199.08 162.554 194.698 174.173 186.742 183.193L181.99 178.44C188.652 170.724 192.334 160.88 192.372 150.685C192.41 140.491 188.8 130.62 182.195 122.855L184.566 120.483L186.952 118.098C194.776 127.088 199.077 138.609 199.06 150.527Z" fill="black"/>
<path d="M182.239 113.359L179.858 115.753L177.486 118.125C169.729 111.426 159.822 107.741 149.573 107.741C139.325 107.741 129.417 111.426 121.66 118.125L119.288 115.753L116.908 113.372C125.939 105.436 137.551 101.059 149.573 101.059C161.596 101.059 173.208 105.436 182.239 113.372V113.359Z" fill="black"/>
<path d="M121.66 118.111C119.969 119.567 118.395 121.153 116.952 122.855L114.581 120.483L112.195 118.098L100.033 105.944L95.2986 101.21C96.8025 99.5602 98.3748 97.982 100.015 96.4751L104.75 101.21L116.908 113.367L119.288 115.748L121.66 118.111Z" fill="black"/>
<path d="M201.244 197.696C199.74 199.342 198.161 200.913 196.505 202.408L177.245 183.148C178.947 181.706 180.533 180.131 181.989 178.44L201.244 197.696Z" fill="black"/>
<path d="M203.634 200.085C202.127 201.726 200.549 203.298 198.899 204.802L196.505 202.408C198.161 200.922 199.741 199.351 201.244 197.696L203.634 200.085Z" fill="black"/>
<path d="M203.848 101.201L199.113 105.944L186.951 118.107L184.566 120.492L182.194 122.864C180.752 121.162 179.177 119.575 177.486 118.12L179.858 115.748L182.239 113.367L194.396 101.21L199.131 96.4751C200.772 97.976 202.344 99.5513 203.848 101.201Z" fill="black"/>
<path d="M200.718 90.3502L210.607 100.243L218.435 82.5215L200.718 90.3502Z" fill="black"/>
<path d="M98.8607 211.178L88.9723 201.285L81.1436 219.006L98.8607 211.178Z" fill="black"/>
<path d="M200.718 211.178L210.607 201.285L218.435 219.006L200.718 211.178Z" fill="black"/>
<path d="M98.8607 90.3502L88.9723 100.243L81.1436 82.5215L98.8607 90.3502Z" fill="black"/>
<path d="M100.247 195.351L95.5126 200.085C85.1153 188.775 78.5491 174.474 76.7478 159.216L52 149.636L76.993 139.961C79.0831 125.502 85.4593 112.001 95.2986 101.201L100.033 105.945C88.9805 118.225 82.8824 134.172 82.922 150.693C82.9615 167.215 89.1358 183.133 100.247 195.36V195.351Z" fill="black"/>
<path d="M182.003 187.906C173.003 195.714 161.488 200.012 149.573 200.012C137.659 200.012 126.144 195.714 117.144 187.906L121.901 183.149C124.711 185.535 127.815 187.55 131.139 189.145L143.564 163.421C140.807 162.089 138.57 159.88 137.205 157.14C135.84 154.4 135.423 151.284 136.02 148.281C136.617 145.278 138.194 142.559 140.504 140.549C142.814 138.54 145.725 137.354 148.782 137.179C151.838 137.003 154.866 137.847 157.391 139.578C159.916 141.31 161.795 143.83 162.732 146.745C163.67 149.659 163.613 152.802 162.571 155.681C161.528 158.56 159.56 161.011 156.974 162.65L172.279 186.791C174.019 185.696 175.679 184.479 177.246 183.149L182.003 187.906Z" fill="black"/>
</mask>
<g mask="url(#mask0_158_2019)">
<path d="M297.201 150.526L149.634 2.95947L2.06728 150.526L149.634 298.093L297.201 150.526Z" fill="url(#paint0_linear_158_2019)"/>
<path d="M297.201 150.526L149.634 2.95947L2.06728 150.526L149.634 298.093L297.201 150.526Z" fill="url(#paint1_linear_158_2019)" fill-opacity="0.5"/>
</g>
<defs>
<linearGradient id="paint0_linear_158_2019" x1="75.8475" y1="76.7397" x2="223.417" y2="224.31" gradientUnits="userSpaceOnUse">
<stop offset="0.453125" stop-color="#6838EC"/>
<stop offset="1" stop-color="#570A57"/>
</linearGradient>
<linearGradient id="paint1_linear_158_2019" x1="75.8475" y1="76.7397" x2="223.417" y2="224.31" gradientUnits="userSpaceOnUse">
<stop stop-color="#6838EC"/>
<stop offset="1" stop-color="#E94560"/>
</linearGradient>
</defs>
</svg>
