<svg width="104" height="101" viewBox="0 0 104 101" fill="none" xmlns="http://www.w3.org/2000/svg">
<path d="M86.1953 0H17.1583C7.68204 0 0 7.68204 0 17.1583V83.6115C0 93.0878 7.68204 100.77 17.1583 100.77H86.1953C95.6716 100.77 103.354 93.0878 103.354 83.6115V17.1583C103.354 7.68204 95.6716 0 86.1953 0Z" fill="#470137"/>
<path d="M54.3325 26.5004L41.4363 47.786L55.2336 70.3885C55.3225 70.5468 55.347 70.7325 55.303 70.9085C55.2816 70.9836 55.2356 71.0022 55.1649 71.005L55.0867 71.0038L54.9913 71.0014C54.9397 71.0014 54.8819 71.0038 54.8177 71.0143H44.8699L44.6746 71.0111C44.1384 70.9969 43.752 70.9202 43.5167 70.527C42.5962 68.7338 41.6717 66.9428 40.7431 65.1538C39.9125 63.5582 39.0592 61.9745 38.1835 60.4032L37.7967 59.7112C36.7493 57.8497 35.7208 55.9777 34.7114 54.0954H34.642C33.7098 55.958 32.7506 57.807 31.7646 59.6418C30.7703 61.4908 29.788 63.3286 28.8178 65.1538C27.8471 66.9805 26.8533 68.7949 25.8367 70.5965C25.6732 70.9638 25.4015 71.0405 25.0232 71.0531L24.8658 71.0555H15.3673L15.3262 71.0567L15.1905 71.0688C15.115 71.0732 15.0698 71.0571 15.0552 70.9432C15.0292 70.7742 15.0663 70.6014 15.1594 70.458L28.5405 48.4792L15.5058 26.4317C15.3673 26.2476 15.3443 26.0974 15.4363 25.9812C15.4875 25.9219 15.5518 25.8754 15.624 25.8453C15.6963 25.8152 15.7745 25.8022 15.8526 25.8076H25.6284C25.8416 25.7959 26.0547 25.8315 26.2526 25.9117C26.4181 26.0058 26.5606 26.1362 26.6684 26.2932C27.5005 28.1423 28.425 29.9914 29.442 31.8396C30.4511 33.6762 31.4796 35.5021 32.5273 37.317C33.5589 39.1037 34.5188 40.931 35.4046 42.7943H35.4741C36.3819 40.9314 37.318 39.0824 38.282 37.2479C39.2287 35.4453 40.1996 33.6305 41.1936 31.8049C42.175 30.0027 43.1342 28.1885 44.071 26.3627C44.1243 26.1915 44.2195 26.0365 44.3483 25.9117C44.5196 25.825 44.712 25.7889 44.9031 25.8076H53.9857C54.0692 25.7867 54.1572 25.7936 54.2365 25.8271C54.3157 25.8606 54.382 25.919 54.4252 25.9934C54.4685 26.0678 54.4864 26.1542 54.4763 26.2396C54.4662 26.3251 54.4286 26.405 54.3692 26.4672L54.3325 26.5004ZM74.7085 71.9086L74.2305 71.9138C71.0392 71.9624 67.8771 71.2993 64.9742 69.9727C62.27 68.7211 60.0096 66.6781 58.4917 64.1138C56.9612 61.572 56.1754 58.4043 56.1359 54.6122L56.1343 54.3033C56.1083 51.1212 56.9216 47.9884 58.4921 45.2207C60.0638 42.4813 62.3552 40.2243 65.118 38.6941L65.3558 38.5649C68.3596 36.9007 71.9881 36.0686 76.241 36.0686L76.4268 36.0707L76.6392 36.0775L76.8773 36.088L77.1421 36.1034L77.587 36.1349L78.0909 36.1752L78.4595 36.2075V22.5487C78.4595 22.2257 78.5984 22.0634 78.8754 22.0634H87.6116C87.6681 22.0553 87.7256 22.0605 87.7798 22.0785C87.8339 22.0965 87.8831 22.1269 87.9235 22.1673C87.9638 22.2077 87.9943 22.2569 88.0123 22.311C88.0304 22.3652 88.0354 22.4228 88.0273 22.4793V63.4554C88.0273 64.1433 88.054 64.8845 88.1073 65.6775L88.2366 67.4761L88.3052 68.5165C88.3137 68.6605 88.2785 68.8038 88.2042 68.9276C88.13 69.0514 88.0201 69.1498 87.8889 69.2101C85.6352 70.1499 83.2878 70.847 80.8864 71.2896C78.8477 71.6659 76.7813 71.8729 74.7085 71.9086ZM78.4595 63.3165V44.3886C78.0848 44.2872 77.7022 44.2176 77.3158 44.1807C76.8435 44.1332 76.369 44.11 75.8943 44.1113C74.2119 44.0946 72.5491 44.4747 71.041 45.2207C69.5721 45.9509 68.3178 47.0499 67.401 48.4101C66.4858 49.7489 66.0123 51.497 65.9812 53.6545L65.9795 53.8875C65.9458 55.3987 66.1926 56.9031 66.7074 58.3244C67.1265 59.4698 67.7892 60.5107 68.6494 61.3754C69.4727 62.1707 70.4694 62.764 71.561 63.1086C72.7142 63.482 73.9195 63.6694 75.1316 63.6637C75.7784 63.6637 76.3791 63.6403 76.9342 63.5938C77.3769 63.5605 77.8158 63.4876 78.2455 63.3758L78.4595 63.3165Z" fill="#FF61F6"/>
</svg>
