<svg width="104" height="101" viewBox="0 0 104 101" fill="none" xmlns="http://www.w3.org/2000/svg">
<path d="M86.1954 0H17.1583C7.68204 0 0 7.68204 0 17.1583V83.6115C0 93.0878 7.68204 100.77 17.1583 100.77H86.1954C95.6716 100.77 103.354 93.0878 103.354 83.6115V17.1583C103.354 7.68204 95.6716 0 86.1954 0Z" fill="#330000"/>
<path d="M50.0838 60.4738H34.068L30.8091 70.5964C30.7648 70.7811 30.6574 70.9444 30.5055 71.0584C30.3536 71.1723 30.1667 71.2297 29.977 71.2206H21.865C21.4027 71.2206 21.2408 70.9662 21.3797 70.4575L35.2465 30.5218C35.3849 30.106 35.5238 29.6324 35.6623 29.1007C35.844 28.1754 35.9368 27.2355 35.9397 26.2928C35.9302 26.2269 35.9363 26.1596 35.9573 26.0964C35.9783 26.0332 36.0138 25.9758 36.0609 25.9287C36.108 25.8815 36.1654 25.846 36.2286 25.8249C36.2918 25.8038 36.359 25.7977 36.4249 25.8071H47.4491C47.772 25.8071 47.9569 25.923 48.0038 26.1543L63.7422 70.527C63.8811 70.9896 63.7422 71.221 63.3264 71.2206H54.3128C54.158 71.2377 54.0023 71.198 53.8747 71.1086C53.7471 71.0193 53.6564 70.8866 53.6196 70.7353L50.0838 60.4738ZM36.5638 51.738H47.5185L47.3623 51.2224L47.1115 50.4061L46.9327 49.8328L46.6473 48.9301L46.0405 47.0298L44.1207 40.9565C43.7758 39.8656 43.4447 38.7703 43.1276 37.671L42.874 36.7788L42.5777 35.7238L42.1255 34.0887L42.0407 33.7807H41.9717C41.6248 35.4449 41.2023 37.0925 40.7056 38.7183L39.6769 42.0272L38.5396 45.7059C38.4363 46.0402 38.3337 46.3709 38.2308 46.6975L37.924 47.6656L37.6187 48.6111L37.3151 49.5333L37.0132 50.4324C36.913 50.7283 36.8129 51.0202 36.7132 51.3084L36.5638 51.738ZM73.1014 33.1565C72.3942 33.1849 71.6891 33.0637 71.032 32.8009C70.3749 32.5381 69.7806 32.1395 69.2882 31.6313C68.797 31.101 68.4155 30.4788 68.1656 29.8006C67.9157 29.1223 67.8023 28.4014 67.8319 27.6792C67.8068 26.9642 67.9327 26.252 68.2015 25.5891C68.4704 24.9261 68.876 24.3273 69.3919 23.8317C70.3871 22.8763 71.7125 22.3417 73.0921 22.3391L73.2398 22.3407C74.904 22.3407 76.21 22.8373 77.1576 23.8313C77.6358 24.3477 78.0075 24.9534 78.2514 25.6137C78.4952 26.274 78.6065 26.9759 78.5787 27.6792C78.6078 28.4043 78.4908 29.1278 78.2347 29.8068C77.9787 30.4858 77.5888 31.1063 77.0881 31.6317C76.5827 32.1299 75.9827 32.5219 75.3235 32.7847C74.6642 33.0475 73.9591 33.1757 73.2495 33.1618L73.1014 33.1565ZM68.3172 70.527V37.386C68.3172 36.9701 68.5013 36.7618 68.8719 36.7618H77.4002C77.7696 36.7618 77.9545 36.9697 77.9549 37.386V70.527C77.9549 70.9896 77.77 71.221 77.4002 71.2206H68.9414C68.5473 71.2206 68.3398 71.0131 68.3192 70.598L68.3172 70.527Z" fill="#FF9A00"/>
</svg>
