<svg width="143" height="136" viewBox="0 0 143 136" fill="none" xmlns="http://www.w3.org/2000/svg">
<path fill-rule="evenodd" clip-rule="evenodd" d="M37.5302 17.8346C56.5669 -1.15034 64.4965 35.5711 81.4569 52.5777C97.6716 68.8366 135.558 79.7298 117.358 97.88C94.8741 120.303 60.9614 116.39 40.9299 96.3042C20.2901 75.6082 14.3637 40.9381 37.5302 17.8346Z" fill="#CEC4BA"/>
<g clip-path="url(#clip0_143_17529)">
<path d="M84.3875 13.5088C84.6509 14.6724 84.4415 15.893 83.8052 16.9023C83.169 17.9115 82.158 18.6268 80.9945 18.8908C73.5116 20.597 66.7698 24.65 61.753 30.4584C56.7362 36.2667 53.707 43.5264 53.1075 51.1779C52.5079 58.8294 54.3695 66.4722 58.4204 72.9911C62.4713 79.5099 68.4995 84.5635 75.6254 87.4144C82.7512 90.2652 90.6017 90.7641 98.0311 88.8382C105.46 86.9123 112.08 82.6624 116.923 76.7088C121.767 70.7552 124.581 63.4094 124.955 55.7436C125.329 48.0777 123.243 40.493 119.001 34.0963C118.674 33.6041 118.447 33.0522 118.334 32.4723C118.22 31.8923 118.221 31.2956 118.338 30.7162C118.574 29.5461 119.265 28.5177 120.259 27.8571C121.253 27.1965 122.469 26.9579 123.639 27.1938C124.219 27.3106 124.769 27.5403 125.26 27.8699C125.751 28.1996 126.171 28.6226 126.498 29.1148C131.403 36.4866 134.013 45.1459 134 53.9998C134 78.8533 113.853 98.9998 89 98.9998C64.1465 98.9998 44 78.8533 44 53.9998C44 32.5798 58.9625 14.6608 79.0055 10.1158C80.1691 9.85241 81.3897 10.0618 82.3989 10.6981C83.4082 11.3344 84.1235 12.3454 84.3875 13.5088ZM93.5 13.5628C93.4995 12.8878 93.6493 12.2211 93.9386 11.6112C94.2279 11.0013 94.6495 10.4635 95.1726 10.0369C95.6958 9.61026 96.3074 9.30553 96.963 9.14483C97.6187 8.98412 98.3019 8.97149 98.963 9.10783L99.4805 9.24734L112.922 13.7293C114.014 14.0902 114.926 14.8555 115.472 15.868C116.017 16.8806 116.154 18.0635 115.855 19.1739C115.555 20.2843 114.842 21.2379 113.861 21.8388C112.881 22.4398 111.707 22.6425 110.582 22.4053L110.078 22.2703L102.5 19.7413V53.9998C102.499 56.827 101.61 59.5824 99.9588 61.8773C98.3077 64.1723 95.9779 65.891 93.2978 66.7911C90.6178 67.6911 87.7228 67.727 85.0212 66.8938C82.3196 66.0606 79.9478 64.4002 78.2403 62.147C76.5328 59.8937 75.5758 57.1612 75.5043 54.335C75.4328 51.5088 76.2504 48.7314 77.8417 46.3946C79.433 44.0579 81.7178 42.2797 84.3738 41.3109C87.0298 40.342 89.9229 40.2315 92.645 40.9948L93.5 41.2648V13.5673V13.5628Z" fill="#685648"/>
</g>
<defs>
<clipPath id="clip0_143_17529">
<rect width="108" height="108" fill="white" transform="translate(35)"/>
</clipPath>
</defs>
</svg>
