<svg width="104" height="101" viewBox="0 0 104 101" fill="none" xmlns="http://www.w3.org/2000/svg">
<path d="M86.1954 0H17.1583C7.68204 0 0 7.68204 0 17.1583V83.6115C0 93.0878 7.68204 100.77 17.1583 100.77H86.1954C95.6717 100.77 103.354 93.0878 103.354 83.6115V17.1583C103.354 7.68204 95.6717 0 86.1954 0Z" fill="#001E36"/>
<path d="M23.2723 70.666V26.362C23.2723 26.039 23.4112 25.8767 23.6886 25.8767L24.1274 25.8755L24.8776 25.8674L25.92 25.8468L29.4122 25.7729L33.1568 25.7035C34.4737 25.6809 35.7794 25.6688 37.0737 25.6688C40.5861 25.6688 43.5442 26.108 45.9484 26.9861C48.1171 27.7197 50.0949 28.9276 51.7378 30.522C53.1306 31.904 54.2069 33.5718 54.8925 35.4103C55.5411 37.1993 55.8698 39.0884 55.8635 40.9914C55.8635 44.6899 55.008 47.7404 53.2978 50.1434C51.6251 52.4877 49.2919 54.2806 46.596 55.2933L46.3646 55.3781C43.5494 56.4282 40.4319 56.8077 37.0127 56.8315L36.4814 56.8331L35.693 56.8291L35.2953 56.8235L34.852 56.813L34.5847 56.8025L34.4224 56.794L34.0232 56.7794L33.535 56.7694L32.8003 56.7641L32.6367 56.7637V70.5965C32.6489 70.6813 32.6411 70.7678 32.6141 70.8491C32.587 70.9303 32.5414 71.0042 32.4808 71.0648C32.4202 71.1253 32.3464 71.171 32.2651 71.198C32.1838 71.2251 32.0974 71.2328 32.0126 71.2207H23.758C23.4338 71.2207 23.2723 71.0366 23.2723 70.666ZM32.6371 34.1967V48.6468C33.1905 48.6915 33.7454 48.7146 34.3005 48.7162H36.5888C38.1665 48.7109 39.735 48.4761 41.245 48.019L41.5462 47.9249C42.9199 47.5169 44.1474 46.7226 45.0824 45.6366C45.9512 44.612 46.4014 43.2001 46.4325 41.4007L46.4345 41.1993C46.4708 39.8581 46.122 38.5347 45.4288 37.3861C44.7003 36.2753 43.6472 35.4158 42.413 34.9246C40.8013 34.2982 39.0797 34.0035 37.3515 34.0582L36.4721 34.0606L35.9174 34.0655L35.3882 34.0723L34.6413 34.0869L34.0962 34.1022L33.8132 34.1127L33.4349 34.1305L33.1128 34.1502L32.929 34.1648L32.7704 34.1801L32.7006 34.1882L32.6371 34.1967ZM82.6708 46.0194C81.4613 45.3978 80.1785 44.931 78.8524 44.6297L78.5456 44.5635C77.0867 44.2288 75.5974 44.0444 74.101 44.0132L73.7271 44.0088C72.8498 43.985 71.9739 44.0902 71.1271 44.3209C70.5881 44.4407 70.1089 44.7477 69.7746 45.1873C69.5487 45.539 69.4285 45.9481 69.4283 46.3662C69.4409 46.7716 69.5871 47.1614 69.8441 47.4752C70.212 47.9055 70.6544 48.2662 71.1501 48.5398L71.3003 48.6194C72.2889 49.1516 73.3074 49.6261 74.3509 50.0405C76.6777 50.8194 78.9011 51.8788 80.972 53.1952C82.3829 54.0856 83.5505 55.3127 84.3697 56.7661C85.0585 58.1421 85.4034 59.6646 85.375 61.2031C85.4165 63.2349 84.8358 65.2309 83.7108 66.9234C82.5065 68.6413 80.8338 69.9768 78.892 70.771C76.8584 71.6648 74.361 72.1263 71.4001 72.1565L71.0924 72.1581C69.2569 72.1767 67.4239 72.0161 65.6195 71.6785L65.2336 71.6034C63.7144 71.3248 62.2355 70.859 60.8309 70.2166C60.6897 70.1438 60.5705 70.0347 60.4852 69.9007C60.3999 69.7666 60.3518 69.6123 60.3456 69.4536V61.8967C60.3373 61.8233 60.3491 61.7491 60.3797 61.6819C60.4102 61.6147 60.4585 61.5571 60.5192 61.5151C60.5787 61.4815 60.6471 61.4668 60.7152 61.473C60.7833 61.4792 60.8479 61.506 60.9004 61.5499C62.5591 62.528 64.3602 63.2415 66.2388 63.6646C67.8947 64.0797 69.5933 64.3008 71.3003 64.3235C72.9176 64.3235 74.1078 64.1151 74.8709 63.6993C75.2154 63.5416 75.5069 63.2874 75.7099 62.9674C75.913 62.6475 76.019 62.2756 76.015 61.8967C76.015 61.2967 75.6682 60.7186 74.975 60.1635C74.6844 59.9309 74.2673 59.6778 73.7247 59.4045L73.4651 59.2769L73.1881 59.1465L73.0428 59.0803L72.7384 58.9454C72.6856 58.9224 72.6327 58.8995 72.5797 58.8768L72.2487 58.7379L72.0763 58.6673L71.7186 58.5239L71.5329 58.4513L71.1481 58.3031L70.7456 58.1525C68.5685 57.3948 66.5043 56.3452 64.6094 55.0325C63.2542 54.09 62.1383 52.8434 61.3509 51.3925C60.6691 50.0263 60.3244 48.5167 60.3456 46.9899C60.3418 45.1555 60.8456 43.3557 61.8015 41.7899C62.8915 40.066 64.4564 38.6934 66.3083 37.8383C68.3418 36.8221 70.8837 36.3134 73.9346 36.3126C75.7215 36.2982 77.5068 36.4258 79.2735 36.6941C80.5528 36.8564 81.8035 37.1947 82.9902 37.6994C83.1812 37.7543 83.335 37.8952 83.406 38.0809C83.4533 38.2501 83.4763 38.4249 83.4755 38.6009V45.6035C83.4856 45.7691 83.406 45.9277 83.2675 46.0194C83.1748 46.0654 83.0727 46.0894 82.9692 46.0894C82.8657 46.0894 82.7635 46.0654 82.6708 46.0194Z" fill="#31A8FF"/>
</svg>
