<svg width="141" height="141" viewBox="0 0 141 141" fill="none" xmlns="http://www.w3.org/2000/svg">
<path fill-rule="evenodd" clip-rule="evenodd" d="M16.2056 95.4064C2.29572 72.399 39.8492 73.435 60.4032 61.0085C80.0534 49.1284 99.6486 14.9226 112.947 36.9184C129.375 64.0918 117.506 96.0995 93.2303 110.776C68.2175 125.899 33.133 123.405 16.2056 95.4064Z" fill="#CEC4BA"/>
<path d="M91.8334 14.5001C90.4766 12.9832 88.8157 11.7689 86.9587 10.9361C85.1017 10.1034 83.0902 9.67089 81.055 9.66677H34.945C32.8989 9.65435 30.8733 10.0751 29.0014 10.9015C27.1295 11.7278 25.4536 12.9409 24.0841 14.4612C22.7145 15.9814 21.6822 17.7743 21.055 19.722C20.4278 21.6696 20.2199 23.728 20.445 25.7618L27.985 93.4284C28.3793 96.9914 30.0793 100.282 32.7571 102.665C35.4348 105.048 38.9004 106.355 42.485 106.333H73.515C77.0996 106.355 80.5652 105.048 83.243 102.665C85.9207 100.282 87.6208 96.9914 88.015 93.4284L95.555 25.7618C95.7635 23.7284 95.5397 21.6738 94.8983 19.733C94.2569 17.7922 93.2124 16.0089 91.8334 14.5001ZM78.3 92.3651C78.1686 93.5527 77.6019 94.6496 76.7093 95.444C75.8168 96.2384 74.6616 96.674 73.4667 96.6668H42.485C41.2901 96.674 40.1349 96.2384 39.2424 95.444C38.3498 94.6496 37.7831 93.5527 37.6517 92.3651L32.77 48.3334H83.23L78.3 92.3651ZM84.2934 38.6668H31.7067L30.16 24.6984C30.0839 24.0204 30.1522 23.3338 30.3605 22.684C30.5688 22.0343 30.9122 21.4359 31.3684 20.9284C31.8202 20.4277 32.3719 20.0272 32.9879 19.7525C33.6039 19.4778 34.2706 19.335 34.945 19.3334H81.055C81.7295 19.335 82.3961 19.4778 83.0121 19.7525C83.6281 20.0272 84.1798 20.4277 84.6317 20.9284C85.0878 21.4359 85.4313 22.0343 85.6395 22.684C85.8478 23.3338 85.9161 24.0204 85.84 24.6984L84.2934 38.6668ZM67.6667 87.0001C68.9486 87.0001 70.1779 86.4909 71.0844 85.5844C71.9908 84.678 72.5 83.4486 72.5 82.1668V62.8334C72.5 61.5516 71.9908 60.3222 71.0844 59.4158C70.1779 58.5093 68.9486 58.0001 67.6667 58.0001C66.3848 58.0001 65.1554 58.5093 64.249 59.4158C63.3426 60.3222 62.8334 61.5516 62.8334 62.8334V82.1668C62.8334 83.4486 63.3426 84.678 64.249 85.5844C65.1554 86.4909 66.3848 87.0001 67.6667 87.0001ZM48.3334 87.0001C49.6152 87.0001 50.8446 86.4909 51.751 85.5844C52.6575 84.678 53.1667 83.4486 53.1667 82.1668V62.8334C53.1667 61.5516 52.6575 60.3222 51.751 59.4158C50.8446 58.5093 49.6152 58.0001 48.3334 58.0001C47.0515 58.0001 45.8221 58.5093 44.9157 59.4158C44.0092 60.3222 43.5 61.5516 43.5 62.8334V82.1668C43.5 83.4486 44.0092 84.678 44.9157 85.5844C45.8221 86.4909 47.0515 87.0001 48.3334 87.0001Z" fill="#685648"/>
</svg>
