<svg width="87" height="88" viewBox="0 0 87 88" fill="none" xmlns="http://www.w3.org/2000/svg">
<path d="M79.75 43.6249C79.7561 48.3996 78.816 53.1282 76.9839 57.5374C75.1519 61.9466 72.4642 65.9491 69.0762 69.3135C65.7159 72.6678 61.7276 75.3271 57.3391 77.1393C52.9506 78.9515 48.2479 79.8811 43.5 79.8749C23.4791 79.8749 7.25 63.6458 7.25 43.6249C7.23733 34.33 10.8077 25.3878 17.2188 18.6577C20.6015 15.0882 24.677 12.2464 29.196 10.3064C33.7149 8.36638 38.5822 7.36887 43.5 7.37491C48.2479 7.36876 52.9506 8.29835 57.3391 10.1105C61.7276 11.9227 65.7159 14.582 69.0762 17.9363C72.4642 21.3008 75.1519 25.3032 76.9839 29.7124C78.816 34.1216 79.7561 38.8502 79.75 43.6249V43.6249Z" stroke="#F0B18E" stroke-width="6.93688" stroke-linecap="round" stroke-linejoin="round"/>
<path d="M79.75 43.6249C74.4611 43.6249 59.8705 41.6312 46.8115 47.3641C32.625 53.5937 22.3536 63.2561 17.8767 69.2664" stroke="#F0B18E" stroke-width="6.93688" stroke-linecap="round" stroke-linejoin="round"/>
<path d="M29.9062 10.0101C35.5793 15.2464 47.9587 28.5774 52.5625 41.8123C57.1662 55.0471 58.87 71.3198 59.9212 75.9507" stroke="#F0B18E" stroke-width="6.93688" stroke-linecap="round" stroke-linejoin="round"/>
<path d="M7.52914 39.0937C14.3768 39.5069 32.5036 39.8785 44.1036 34.9249C55.7036 29.9714 65.685 20.8599 69.1088 17.969M9.96877 57.4235C13.163 65.1554 18.9238 71.5506 26.2813 75.5322" stroke="#F0B18E" stroke-width="6.93688" stroke-linecap="round" stroke-linejoin="round"/>
<path d="M7.25 43.6249C7.23733 34.33 10.8077 25.3878 17.2188 18.6577M43.5 7.37491C38.5822 7.36886 33.7149 8.36638 29.196 10.3064C24.677 12.2464 20.6015 15.0882 17.2188 18.6577M58 10.3909C62.1282 12.1971 65.8842 14.7558 69.0762 17.9363C72.4642 21.3008 75.1519 25.3032 76.9839 29.7124C78.816 34.1216 79.7561 38.8502 79.75 43.6249C79.75 48.0873 78.9434 52.363 77.4663 56.3124M43.5 79.8749C48.2479 79.8811 52.9506 78.9515 57.3391 77.1393C61.7276 75.3271 65.7159 72.6678 69.0762 69.3135" stroke="#F0B18E" stroke-width="6.93688" stroke-linecap="round" stroke-linejoin="round"/>
</svg>
