<svg width="72" height="72" viewBox="0 0 72 72" fill="none" xmlns="http://www.w3.org/2000/svg">
<path d="M20.95 0.166626H51.05C62.5167 0.166626 71.8333 9.48329 71.8333 20.95V51.05C71.8333 56.562 69.6437 61.8484 65.746 65.746C61.8484 69.6436 56.5621 71.8333 51.05 71.8333H20.95C9.48333 71.8333 0.166664 62.5166 0.166664 51.05V20.95C0.166664 15.4379 2.35633 10.1516 6.25396 6.25392C10.1516 2.35629 15.4379 0.166626 20.95 0.166626ZM20.2333 7.33329C16.812 7.33329 13.5309 8.6924 11.1117 11.1116C8.69243 13.5308 7.33333 16.812 7.33333 20.2333V51.7666C7.33333 58.8975 13.1025 64.6666 20.2333 64.6666H51.7667C55.188 64.6666 58.4691 63.3075 60.8883 60.8883C63.3076 58.4691 64.6667 55.1879 64.6667 51.7666V20.2333C64.6667 13.1025 58.8975 7.33329 51.7667 7.33329H20.2333ZM54.8125 12.7083C56.0004 12.7083 57.1397 13.1802 57.9797 14.0202C58.8198 14.8602 59.2917 15.9995 59.2917 17.1875C59.2917 18.3754 58.8198 19.5147 57.9797 20.3547C57.1397 21.1947 56.0004 21.6666 54.8125 21.6666C53.6245 21.6666 52.4852 21.1947 51.6452 20.3547C50.8052 19.5147 50.3333 18.3754 50.3333 17.1875C50.3333 15.9995 50.8052 14.8602 51.6452 14.0202C52.4852 13.1802 53.6245 12.7083 54.8125 12.7083ZM36 18.0833C40.7518 18.0833 45.309 19.9709 48.669 23.331C52.029 26.691 53.9167 31.2482 53.9167 36C53.9167 40.7518 52.029 45.3089 48.669 48.669C45.309 52.029 40.7518 53.9166 36 53.9166C31.2482 53.9166 26.691 52.029 23.331 48.669C19.971 45.3089 18.0833 40.7518 18.0833 36C18.0833 31.2482 19.971 26.691 23.331 23.331C26.691 19.9709 31.2482 18.0833 36 18.0833ZM36 25.25C33.1489 25.25 30.4146 26.3825 28.3986 28.3986C26.3826 30.4146 25.25 33.1489 25.25 36C25.25 38.851 26.3826 41.5853 28.3986 43.6014C30.4146 45.6174 33.1489 46.75 36 46.75C38.8511 46.75 41.5854 45.6174 43.6014 43.6014C45.6174 41.5853 46.75 38.851 46.75 36C46.75 33.1489 45.6174 30.4146 43.6014 28.3986C41.5854 26.3825 38.8511 25.25 36 25.25Z" fill="#F0B18E"/>
</svg>
