<svg width="78" height="63" viewBox="0 0 78 63" fill="none" xmlns="http://www.w3.org/2000/svg">
<path d="M77.3535 7.99996C74.5301 9.28329 71.4868 10.1266 68.3335 10.53C71.5601 8.58663 74.0535 5.50663 75.2268 1.80329C72.1835 3.63663 68.8101 4.91996 65.2535 5.65329C62.3568 2.49996 58.2868 0.666626 53.6668 0.666626C45.0501 0.666626 38.0101 7.70663 38.0101 16.3966C38.0101 17.6433 38.1568 18.8533 38.4135 19.99C25.3601 19.33 13.7368 13.06 6.00015 3.56329C4.64348 5.87329 3.87348 8.58663 3.87348 11.4466C3.87348 16.91 6.62348 21.75 10.8768 24.5C8.27348 24.5 5.85348 23.7666 3.72681 22.6666V22.7766C3.72681 30.4033 9.15348 36.7833 16.3401 38.2133C14.0328 38.8447 11.6105 38.9326 9.26348 38.47C10.2594 41.5957 12.2098 44.3308 14.8405 46.2907C17.4713 48.2506 20.6501 49.3368 23.9301 49.3966C18.3701 53.7982 11.4781 56.1774 4.38681 56.1433C3.14015 56.1433 1.89348 56.07 0.646812 55.9233C7.61348 60.3966 15.9001 63 24.7735 63C53.6668 63 69.5435 39.02 69.5435 18.23C69.5435 17.5333 69.5435 16.8733 69.5068 16.1766C72.5868 13.9766 75.2268 11.19 77.3535 7.99996Z" fill="#F0B18E"/>
</svg>
