<svg width="76" height="76" viewBox="0 0 76 76" fill="none" xmlns="http://www.w3.org/2000/svg">
<path d="M62.7869 22.7914H47.1067V18.8972H62.7869V22.7914ZM36.6689 38.7632C37.6785 40.3309 38.1833 42.2341 38.1833 44.4665C38.1833 46.7773 37.6126 48.8498 36.4557 50.6809C35.742 51.8676 34.8062 52.9055 33.6996 53.7379C32.4029 54.717 30.8992 55.3863 29.3038 55.6944C27.4942 56.0552 25.6525 56.2306 23.8074 56.218H6.271V17.2793H25.0772C29.8148 17.3577 33.1729 18.731 35.1607 21.4275C36.3522 23.083 36.9416 25.0645 36.9416 27.3753C36.9416 29.7551 36.3459 31.6583 35.1419 33.1069C34.4741 33.919 33.4864 34.6558 32.1789 35.3236C34.1574 36.0479 35.6593 37.1892 36.6657 38.7632H36.6689ZM15.254 32.6334H23.4907C25.1838 32.6334 26.554 32.3105 27.6075 31.6677C28.661 31.025 29.1878 29.8805 29.1878 28.2438C29.1878 26.4316 28.4917 25.2307 27.0964 24.6507C25.8956 24.2493 24.3624 24.0424 22.4999 24.0424H15.2508V32.6334H15.254ZM29.981 43.9115C29.981 41.8892 29.1533 40.4908 27.504 39.7414C26.5791 39.3119 25.2779 39.0955 23.6099 39.0798H15.2508V49.4581H23.4844C25.1744 49.4581 26.4819 49.2355 27.4257 48.7746C29.1282 47.9249 29.9842 46.3101 29.9842 43.9115H29.981ZM68.6031 37.578C68.7912 38.851 68.879 40.6977 68.8445 43.1151H48.5364C48.6493 45.9182 49.615 47.8778 51.4524 49.0003C52.5592 49.7026 53.898 50.0475 55.472 50.0475C57.1275 50.0475 58.4788 49.6274 59.5166 48.7652C60.0842 48.3105 60.5827 47.6678 61.0154 46.8525H68.4589C68.2645 48.508 67.3677 50.1886 65.7593 51.8943C63.2635 54.6064 59.7643 55.9672 55.2682 55.9672C51.5558 55.9672 48.2824 54.8196 45.4418 52.5339C42.6105 50.2388 41.1901 46.5202 41.1901 41.3593C41.1901 36.5213 42.4662 32.8184 45.0279 30.2411C47.5989 27.6575 50.9162 26.372 55.0048 26.372C57.4316 26.372 59.6138 26.8047 61.5641 27.6763C63.508 28.548 65.1134 29.9213 66.3801 31.8057C67.5245 33.4675 68.2613 35.3863 68.6062 37.5749L68.6031 37.578ZM61.2756 38.3023C61.1408 36.3646 60.4918 34.8972 59.3285 33.8939C58.1716 32.8905 56.7261 32.3857 55.0048 32.3857C53.1298 32.3857 51.6812 32.925 50.656 33.9848C49.6213 35.0414 48.9754 36.4806 48.712 38.3023H61.2756Z" fill="#685648"/>
</svg>
