<svg width="113" height="92" viewBox="0 0 113 92" fill="none" xmlns="http://www.w3.org/2000/svg">
<path d="M44.331 50.9516C44.7419 43.6067 48.331 37.1362 53.7462 32.549C59.0563 28.0436 66.2035 25.2898 74.0023 25.2898C81.7931 25.2898 88.9408 28.0436 94.2549 32.549C99.6657 37.1357 103.255 43.6067 103.67 50.9437C104.081 58.4903 101.053 65.5009 95.7433 70.6976C90.3286 75.9836 82.6265 79.3005 74.0023 79.3005C65.3781 79.3005 57.661 75.9836 52.2498 70.6976C46.9357 65.5005 43.9161 58.4899 44.331 50.9516Z" fill="white"/>
<path d="M58.7818 51.6067C58.9923 47.8382 60.8343 44.5178 63.6125 42.1643C66.3373 39.8528 70.0045 38.4396 74.0063 38.4396C78.0037 38.4396 81.6713 39.8528 84.3979 42.1643C87.1743 44.5178 89.0159 47.8382 89.2286 51.6032C89.4396 55.4751 87.8868 59.0724 85.1616 61.7386C82.3833 64.4509 78.4314 66.1529 74.0063 66.1529C69.5812 66.1529 65.6213 64.4509 62.8449 61.7386C60.1183 59.0724 58.569 55.4751 58.7818 51.6067Z" fill="#265787"/>
<path d="M34.6111 59.3489C34.6376 60.8262 35.1077 63.6985 35.8135 65.941C37.2962 70.6883 39.8112 75.0804 43.3111 78.9506C46.9029 82.9292 51.3254 86.1248 56.4342 88.3934C61.8035 90.7761 67.6211 91.9903 73.664 91.9806C79.6971 91.9721 85.5154 90.7341 90.8846 88.3333C95.993 86.0426 100.412 82.8332 103.997 78.8529C107.495 74.9663 110.006 70.5667 111.493 65.8194C112.241 63.4207 112.713 60.9863 112.902 58.5434C113.088 56.1336 113.01 53.7107 112.669 51.3179C112.004 46.6245 110.383 42.2209 107.888 38.2065C105.605 34.5177 102.664 31.2884 99.1658 28.57L99.1738 28.5642L63.8745 1.40433C63.8423 1.38045 63.8163 1.3548 63.7823 1.33268C61.4667 -0.448936 57.5717 -0.442743 55.0248 1.34241C52.4496 3.14791 52.1547 6.13393 54.4465 8.01683L54.4368 8.02701L69.1599 20.0242L24.2852 20.0719H24.2252C20.5161 20.0764 16.9508 22.5148 16.2446 25.5964C15.5193 28.7359 18.0389 31.3402 21.8954 31.3543L21.8893 31.368L44.6349 31.3238L4.04675 62.5423C3.9951 62.5804 3.93908 62.6202 3.89141 62.6582C0.0626545 65.596 -1.17508 70.4813 1.23632 73.5726C3.68392 76.7165 8.8881 76.7223 12.7566 73.5907L34.9081 55.4247C34.9081 55.4247 34.585 57.8769 34.6111 59.3489ZM91.5326 67.5607C86.9684 72.2205 80.5782 74.8624 73.6645 74.8765C66.7401 74.8885 60.3503 72.27 55.7862 67.6187C53.5558 65.3519 51.9177 62.7436 50.9069 59.9654C49.9134 57.2314 49.5311 54.3122 49.787 51.4139C50.028 48.5557 50.8773 45.8297 52.2324 43.363C53.5637 40.9387 55.3973 38.7475 57.6617 36.8942C62.0979 33.2717 67.7465 31.3101 73.6539 31.3021C79.5678 31.2942 85.2121 33.2377 89.6531 36.8487C91.9131 38.6935 93.7449 40.8768 95.0762 43.2975C96.4493 45.7772 97.2859 48.5188 97.5317 51.344C97.7838 54.2405 97.4001 57.1572 96.4075 59.8894C95.3949 62.6759 93.7626 65.2842 91.5326 67.5607Z" fill="#EA7600"/>
</svg>
