<svg width="76" height="76" viewBox="0 0 76 76" fill="none" xmlns="http://www.w3.org/2000/svg">
<path d="M68.9791 37.6247C68.9844 41.7545 68.1712 45.8445 66.5866 49.6582C65.002 53.4719 62.6773 56.9338 59.7469 59.8438C56.8404 62.7451 53.3907 65.0453 49.5949 66.6127C45.7991 68.1801 41.7316 68.9842 37.6249 68.9789C20.308 68.9789 6.27078 54.9416 6.27078 37.6247C6.25982 29.5851 9.34799 21.8507 14.8932 16.0295C17.8191 12.9421 21.3442 10.4841 25.2528 8.80612C29.1614 7.1281 33.3714 6.26531 37.6249 6.27053C41.7316 6.26522 45.7991 7.06925 49.5949 8.6367C53.3907 10.2041 56.8404 12.5042 59.7469 15.4056C62.6773 18.3156 65.002 21.7775 66.5866 25.5912C68.1712 29.4049 68.9844 33.4949 68.9791 37.6247V37.6247Z" stroke="#685648" stroke-width="6" stroke-linecap="round" stroke-linejoin="round"/>
<path d="M68.979 37.6247C64.4044 37.6247 51.7844 35.9002 40.4891 40.8588C28.2186 46.2471 19.3344 54.6045 15.4622 59.803" stroke="#685648" stroke-width="6" stroke-linecap="round" stroke-linejoin="round"/>
<path d="M25.8672 8.5498C30.7741 13.0789 41.4816 24.6094 45.4635 36.0568C49.4455 47.5042 50.9192 61.5791 51.8284 65.5846" stroke="#685648" stroke-width="6" stroke-linecap="round" stroke-linejoin="round"/>
<path d="M6.51221 33.7057C12.435 34.0632 28.1137 34.3845 38.147 30.1C48.1803 25.8154 56.8137 17.9346 59.7751 15.4341M8.62234 49.56C11.3851 56.2476 16.3679 61.7791 22.7317 65.2229" stroke="#685648" stroke-width="6" stroke-linecap="round" stroke-linejoin="round"/>
<path d="M6.27078 37.6247C6.25982 29.5851 9.34799 21.8507 14.8932 16.0295M37.6249 6.27053C33.3714 6.26531 29.1614 7.1281 25.2528 8.80611C21.3442 10.4841 17.8191 12.9421 14.8932 16.0295M50.1666 8.8792C53.7373 10.4415 56.986 12.6546 59.7469 15.4056C62.6773 18.3156 65.002 21.7775 66.5866 25.5912C68.1712 29.4049 68.9844 33.4949 68.9791 37.6247C68.9791 41.4844 68.2815 45.1826 67.0038 48.5987M37.6249 68.9789C41.7316 68.9842 45.7991 68.1801 49.5949 66.6127C53.3907 65.0453 56.8404 62.7451 59.7469 59.8438" stroke="#685648" stroke-width="6" stroke-linecap="round" stroke-linejoin="round"/>
</svg>
