<svg width="68" height="101" viewBox="0 0 68 101" fill="none" xmlns="http://www.w3.org/2000/svg">
<path d="M16.8219 100.931C26.1076 100.931 33.6438 93.3951 33.6438 84.1094V67.2875H16.8219C7.53622 67.2875 0 74.8237 0 84.1094C0 93.3951 7.53622 100.931 16.8219 100.931Z" fill="#0ACF83"/>
<path d="M0 50.4656C0 41.18 7.53622 33.6437 16.8219 33.6437H33.6438V67.2875H16.8219C7.53622 67.2875 0 59.7513 0 50.4656Z" fill="#A259FF"/>
<path d="M0 16.8219C0 7.53623 7.53622 2.0291e-05 16.8219 2.0291e-05H33.6437L33.6438 33.6437H16.8219C7.53622 33.6437 0 26.1076 0 16.8219Z" fill="#F24E1E"/>
<path d="M33.6437 2.0291e-05L50.4658 0C59.7514 0 67.2877 7.53621 67.2877 16.8219C67.2877 26.1076 59.7514 33.6438 50.4658 33.6438L33.6438 33.6437L33.6437 2.0291e-05Z" fill="#FF7262"/>
<path d="M67.2877 50.4656C67.2877 59.7513 59.7514 67.2875 50.4658 67.2875C41.1801 67.2875 33.6439 59.7513 33.6439 50.4656C33.6439 41.18 41.1801 33.6438 50.4658 33.6438C59.7514 33.6438 67.2877 41.18 67.2877 50.4656Z" fill="#1ABCFE"/>
</svg>
