<svg width="179" height="165" viewBox="0 0 179 165" fill="none" xmlns="http://www.w3.org/2000/svg">
<path fill-rule="evenodd" clip-rule="evenodd" d="M56.2249 135.743C32.6257 121.058 71.7023 98.0134 87.849 72.0641C103.286 47.2558 109.661 -0.431649 132.223 13.607C160.095 30.9503 160.786 71.4219 141.716 102.07C122.066 133.649 84.9436 153.613 56.2249 135.743Z" fill="#CEC4BA"/>
<path d="M26.1156 55.6562H110.884C112.162 55.6535 113.422 55.365 114.574 54.8118C115.725 54.2587 116.738 53.4549 117.539 52.4595C118.339 51.464 118.907 50.3021 119.2 49.0588C119.493 47.8155 119.504 46.5224 119.233 45.2742C115.326 26.4902 93.9734 12.8438 68.5 12.8438C43.0266 12.8438 21.6738 26.4902 17.7672 45.2742C17.4957 46.5224 17.507 47.8155 17.8002 49.0588C18.0933 50.3021 18.6609 51.464 19.4614 52.4595C20.2618 53.4549 21.2749 54.2587 22.4263 54.8118C23.5777 55.365 24.8383 55.6535 26.1156 55.6562ZM68.5 21.4062C89.5852 21.4062 107.78 32.4305 110.884 47.0402H26.1156C29.2195 32.4305 47.4148 21.4062 68.5 21.4062ZM120.41 81.6648L100.609 89.5852L80.8086 81.6648C80.2999 81.4529 79.7542 81.3438 79.2031 81.3438C78.652 81.3438 78.1064 81.4529 77.5977 81.6648L57.7969 89.5852L37.9961 81.6648C37.4874 81.4529 36.9417 81.3438 36.3906 81.3438C35.8395 81.3438 35.2939 81.4529 34.7852 81.6648L13.3789 90.2273C12.4634 90.6034 11.7064 91.285 11.2368 92.1563C10.7672 93.0276 10.614 94.0347 10.8033 95.0062C10.9925 95.9777 11.5125 96.8536 12.2748 97.4849C13.0371 98.1162 13.9946 98.4639 14.9844 98.4688C15.5352 98.466 16.0803 98.357 16.5898 98.1477L21.4062 96.2211V98.4688C21.4062 104.146 23.6615 109.591 27.676 113.605C31.6904 117.62 37.1352 119.875 42.8125 119.875H94.1875C99.8648 119.875 105.31 117.62 109.324 113.605C113.338 109.591 115.594 104.146 115.594 98.4688V92.7961L123.621 89.5852C124.604 89.1145 125.371 88.2865 125.765 87.2701C126.159 86.2536 126.15 85.1252 125.74 84.115C125.331 83.1048 124.551 82.2888 123.561 81.8336C122.57 81.3783 121.444 81.3179 120.41 81.6648ZM107.031 98.4688C107.017 101.871 105.659 105.129 103.254 107.535C100.848 109.941 97.5895 111.298 94.1875 111.312H42.8125C39.4105 111.298 36.1518 109.941 33.7462 107.535C31.3405 105.129 29.9828 101.871 29.9688 98.4688V92.7961L36.3906 90.2273L56.1914 98.1477C56.7001 98.3596 57.2458 98.4688 57.7969 98.4688C58.348 98.4688 58.8936 98.3596 59.4023 98.1477L79.2031 90.2273L99.0039 98.1477C99.5126 98.3596 100.058 98.4688 100.609 98.4688C101.16 98.4688 101.706 98.3596 102.215 98.1477L107.031 96.2211V98.4688ZM128.438 68.5C128.438 69.6355 127.986 70.7244 127.184 71.5273C126.381 72.3302 125.292 72.7812 124.156 72.7812H12.8438C11.7083 72.7812 10.6193 72.3302 9.81645 71.5273C9.01356 70.7244 8.5625 69.6355 8.5625 68.5C8.5625 67.3645 9.01356 66.2756 9.81645 65.4727C10.6193 64.6698 11.7083 64.2188 12.8438 64.2188H124.156C125.292 64.2188 126.381 64.6698 127.184 65.4727C127.986 66.2756 128.438 67.3645 128.438 68.5Z" fill="#685648"/>
</svg>
