<svg width="73" height="46" viewBox="0 0 73 46" fill="none" xmlns="http://www.w3.org/2000/svg">
<path d="M65.5906 7.04718H47.462V2.59668H65.5906V7.04718ZM35.3944 25.3007C36.5616 27.0923 37.1453 29.2674 37.1453 31.8188C37.1453 34.4597 36.4855 36.8283 35.1479 38.9209C34.3228 40.2771 33.2409 41.4633 31.9615 42.4147C30.4623 43.5337 28.7238 44.2985 26.8793 44.6507C24.7871 45.0629 22.6579 45.2635 20.5246 45.2491H0.25V0.747681H21.9928C27.4701 0.837264 31.3525 2.40676 33.6507 5.48843C35.0282 7.38043 35.7097 9.6451 35.7097 12.286C35.7097 15.0058 35.021 17.1808 33.629 18.8363C32.8569 19.7644 31.715 20.6065 30.2034 21.3698C32.4907 22.1975 34.2271 23.5018 35.3908 25.3007H35.3944ZM10.6356 18.2953H20.1585C22.116 18.2953 23.7001 17.9262 24.9181 17.1916C26.1361 16.457 26.7451 15.1491 26.7451 13.2786C26.7451 11.2074 25.9404 9.83501 24.3273 9.1721C22.9389 8.71343 21.1663 8.47693 19.013 8.47693H10.632V18.2953H10.6356ZM27.6622 31.1845C27.6622 28.8733 26.7052 27.2751 24.7985 26.4187C23.7291 25.9278 22.2248 25.6805 20.2963 25.6626H10.632V37.5234H20.1512C22.1051 37.5234 23.6168 37.269 24.7079 36.7423C26.6763 35.7712 27.6659 33.9258 27.6659 31.1845H27.6622ZM72.315 23.9462C72.5325 25.401 72.634 27.5116 72.5941 30.2743H49.115C49.2455 33.4778 50.362 35.7174 52.4862 37.0003C53.7659 37.8029 55.3138 38.1971 57.1335 38.1971C59.0475 38.1971 60.6099 37.7169 61.8097 36.7315C62.4659 36.2119 63.0422 35.4773 63.5425 34.5457H72.1482C71.9235 36.4377 70.8867 38.3583 69.0271 40.3077C66.1416 43.4073 62.0961 44.9624 56.8979 44.9624C52.6059 44.9624 48.8214 43.6509 45.5371 41.0387C42.2638 38.4157 40.6216 34.1658 40.6216 28.2677C40.6216 22.7386 42.097 18.5067 45.0586 15.5612C48.0311 12.6085 51.8664 11.1393 56.5934 11.1393C59.3991 11.1393 61.9221 11.6338 64.1769 12.63C66.4244 13.6262 68.2804 15.1957 69.7449 17.3493C71.068 19.2484 71.9199 21.4414 72.3186 23.9426L72.315 23.9462ZM63.8434 24.7739C63.6875 22.5594 62.9371 20.8824 61.5923 19.7358C60.2546 18.5891 58.5835 18.0122 56.5934 18.0122C54.4256 18.0122 52.7509 18.6285 51.5655 19.8397C50.3693 21.0473 49.6225 22.692 49.318 24.7739H63.8434Z" fill="#F0B18E"/>
</svg>
