<svg width="70" height="67" viewBox="0 0 70 67" fill="none" xmlns="http://www.w3.org/2000/svg">
<path d="M15.1573 8.12508C15.1563 10.0479 14.3916 11.8916 13.0312 13.2505C11.6709 14.6095 9.82648 15.3724 7.90366 15.3715C5.98084 15.3705 4.13716 14.6057 2.7782 13.2454C1.41924 11.8851 0.656327 10.0407 0.657289 8.11784C0.65825 6.19502 1.42301 4.35133 2.78333 2.99237C4.14365 1.63341 5.98809 0.870499 7.91091 0.871461C9.83373 0.872422 11.6774 1.63718 13.0364 2.9975C14.3953 4.35782 15.1583 6.20227 15.1573 8.12508ZM15.3748 20.7401H0.874788V66.1251H15.3748V20.7401ZM38.2848 20.7401H23.8573V66.1251H38.1398V42.3088C38.1398 29.0413 55.431 27.8088 55.431 42.3088V66.1251H69.7498V37.3788C69.7498 15.0126 44.1573 15.8463 38.1398 26.8301L38.2848 20.7401Z" fill="#F0B18E"/>
</svg>
