<svg width="62" height="62" viewBox="0 0 62 62" fill="none" xmlns="http://www.w3.org/2000/svg">
<path fill-rule="evenodd" clip-rule="evenodd" d="M35.7102 44.75C35.7102 45.8772 35.2625 46.9582 34.4654 47.7552C33.6684 48.5522 32.5874 49 31.4602 49C30.3331 49 29.2521 48.5522 28.455 47.7552C27.658 46.9582 27.2102 45.8772 27.2102 44.75C27.2102 43.6228 27.658 42.5418 28.455 41.7448C29.2521 40.9478 30.3331 40.5 31.4602 40.5C32.5874 40.5 33.6684 40.9478 34.4654 41.7448C35.2625 42.5418 35.7102 43.6228 35.7102 44.75ZM39.4927 25.9629C39.1939 25.6644 38.7888 25.4968 38.3665 25.4968C37.9441 25.4968 37.5391 25.6644 37.2402 25.9629L33.054 30.1491V16.5938C33.054 16.1711 32.8861 15.7657 32.5872 15.4668C32.2883 15.1679 31.8829 15 31.4602 15C31.0376 15 30.6322 15.1679 30.3333 15.4668C30.0344 15.7657 29.8665 16.1711 29.8665 16.5938V30.1491L25.6802 25.9629C25.3781 25.6814 24.9785 25.5281 24.5656 25.5354C24.1527 25.5427 23.7588 25.7099 23.4668 26.0019C23.1748 26.2939 23.0075 26.6879 23.0002 27.1008C22.993 27.5137 23.1462 27.9133 23.4277 28.2154L30.334 35.1216L31.4602 36.25L32.5865 35.1238L39.4927 28.2175C39.6408 28.0695 39.7583 27.8938 39.8385 27.7003C39.9186 27.5069 39.9599 27.2996 39.9599 27.0902C39.9599 26.8808 39.9186 26.6735 39.8385 26.48C39.7583 26.2866 39.6408 26.1109 39.4927 25.9629Z" fill="#F0B18E"/>
</svg>
