<svg width="76" height="76" viewBox="0 0 76 76" fill="none" xmlns="http://www.w3.org/2000/svg">
<path d="M24.9564 6.271H51.2939C61.3272 6.271 69.4793 14.4231 69.4793 24.4564V50.7939C69.4793 55.617 67.5634 60.2425 64.1529 63.6529C60.7425 67.0634 56.117 68.9793 51.2939 68.9793H24.9564C14.9231 68.9793 6.771 60.8272 6.771 50.7939V24.4564C6.771 19.6333 8.68695 15.0078 12.0974 11.5974C15.5078 8.18695 20.1333 6.271 24.9564 6.271ZM24.3293 12.5418C21.3357 12.5418 18.4647 13.731 16.3479 15.8479C14.231 17.9647 13.0418 20.8357 13.0418 23.8293V51.421C13.0418 57.6605 18.0898 62.7085 24.3293 62.7085H51.921C54.9146 62.7085 57.7856 61.5193 59.9025 59.4025C62.0193 57.2856 63.2085 54.4146 63.2085 51.421V23.8293C63.2085 17.5898 58.1605 12.5418 51.921 12.5418H24.3293ZM54.5861 17.245C55.6256 17.245 56.6224 17.6579 57.3574 18.3929C58.0924 19.1279 58.5054 20.1248 58.5054 21.1642C58.5054 22.2037 58.0924 23.2006 57.3574 23.9356C56.6224 24.6706 55.6256 25.0835 54.5861 25.0835C53.5466 25.0835 52.5498 24.6706 51.8148 23.9356C51.0797 23.2006 50.6668 22.2037 50.6668 21.1642C50.6668 20.1248 51.0797 19.1279 51.8148 18.3929C52.5498 17.6579 53.5466 17.245 54.5861 17.245ZM38.1252 21.9481C42.283 21.9481 46.2705 23.5998 49.2105 26.5398C52.1506 29.4798 53.8022 33.4673 53.8022 37.6252C53.8022 41.783 52.1506 45.7705 49.2105 48.7105C46.2705 51.6506 42.283 53.3022 38.1252 53.3022C33.9673 53.3022 29.9798 51.6506 27.0398 48.7105C24.0998 45.7705 22.4481 41.783 22.4481 37.6252C22.4481 33.4673 24.0998 29.4798 27.0398 26.5398C29.9798 23.5998 33.9673 21.9481 38.1252 21.9481ZM38.1252 28.2189C35.6305 28.2189 33.238 29.2099 31.4739 30.9739C29.7099 32.738 28.7189 35.1305 28.7189 37.6252C28.7189 40.1199 29.7099 42.5124 31.4739 44.2764C33.238 46.0404 35.6305 47.0314 38.1252 47.0314C40.6199 47.0314 43.0124 46.0404 44.7764 44.2764C46.5404 42.5124 47.5314 40.1199 47.5314 37.6252C47.5314 35.1305 46.5404 32.738 44.7764 30.9739C43.0124 29.2099 40.6199 28.2189 38.1252 28.2189Z" fill="#685648"/>
</svg>
