<svg width="76" height="76" viewBox="0 0 76 76" fill="none" xmlns="http://www.w3.org/2000/svg">
<path d="M22.5094 15.6773C22.5086 17.3404 21.8471 18.9351 20.6705 20.1105C19.4939 21.2859 17.8986 21.9458 16.2355 21.945C14.5723 21.9442 12.9777 21.2827 11.8022 20.1061C10.6268 18.9295 9.96694 17.3341 9.96777 15.671C9.96861 14.0079 10.6301 12.4132 11.8067 11.2378C12.9833 10.0624 14.5786 9.40249 16.2417 9.40332C17.9049 9.40415 19.4996 10.0656 20.675 11.2422C21.8504 12.4188 22.5103 14.0142 22.5094 15.6773ZM22.6976 26.5885H10.1559V65.844H22.6976V26.5885ZM42.5134 26.5885H30.0344V65.844H42.388V45.2443C42.388 33.7686 57.3439 32.7026 57.3439 45.2443V65.844H69.7288V40.9801C69.7288 21.6346 47.5928 22.3557 42.388 31.856L42.5134 26.5885Z" fill="#685648"/>
</svg>
