<svg width="126" height="130" viewBox="0 0 126 130" fill="none" xmlns="http://www.w3.org/2000/svg">
<path fill-rule="evenodd" clip-rule="evenodd" d="M70.1907 5.18656C95.142 -4.82616 88.0564 32.0674 97.0014 54.358C105.553 75.6685 136.146 100.529 112.292 110.102C82.8227 121.928 53.1513 105.046 42.5866 78.7193C31.7011 51.593 39.8264 17.3714 70.1907 5.18656Z" fill="#CEC4BA"/>
<path d="M45.2675 79.5794C50.9154 77.6551 56.3169 75.0723 61.3605 71.8844M37.4063 71.7656C39.331 66.1058 41.9171 60.6929 45.1108 55.6394M61.3558 71.8844C70.3634 66.1932 78.0733 58.671 83.9848 49.8064L102.396 22.1899C103.101 21.138 103.419 19.874 103.296 18.6136C103.173 17.3531 102.616 16.1746 101.721 15.2791C100.825 14.3836 99.6468 13.8267 98.3863 13.7036C97.1259 13.5805 95.8619 13.8988 94.81 14.6041L67.1935 33.0199C58.3277 38.9295 50.804 46.6378 45.1108 55.6441M61.3558 71.8891C58.1235 64.6601 52.3398 58.8764 45.1108 55.6441M45.2675 79.5794C44.0249 76.5159 41.7557 73.9797 38.8487 72.4053C35.9417 70.831 32.5778 70.3163 29.3331 70.9496C26.0883 71.5828 23.1647 73.3245 21.063 75.8763C18.9612 78.4282 17.8122 81.6314 17.8125 84.9374C17.8125 86.4009 17.512 87.8488 16.9294 89.1914C16.3469 90.534 15.4948 91.7426 14.426 92.7424C13.3572 93.7422 12.0944 94.5118 10.716 95.0036C9.33755 95.4953 7.87281 95.6987 6.41254 95.6011C8.76116 99.6811 12.391 102.872 16.7387 104.677C21.0863 106.483 25.9085 106.803 30.4566 105.588C35.0046 104.372 39.0242 101.689 41.8913 97.9551C44.7584 94.2211 46.3125 89.6451 46.3125 84.9374C46.3125 83.0421 45.942 81.2324 45.2675 79.5794Z" stroke="#685648" stroke-width="7.125" stroke-linecap="round" stroke-linejoin="round"/>
</svg>
