<svg width="134" height="137" viewBox="0 0 134 137" fill="none" xmlns="http://www.w3.org/2000/svg">
<path fill-rule="evenodd" clip-rule="evenodd" d="M7.20558 91.4064C-6.70428 68.399 30.8492 69.435 51.4032 57.0085C71.0534 45.1284 90.6486 10.9226 103.947 32.9184C120.375 60.0918 108.506 92.0995 84.2303 106.776C59.2175 121.899 24.133 119.405 7.20558 91.4064Z" fill="#CEC4BA"/>
<mask id="mask0_143_17519" style="mask-type:alpha" maskUnits="userSpaceOnUse" x="33" y="4" width="93" height="97">
<path d="M92.4375 30.625C95.3383 30.625 98.1203 29.4727 100.172 27.4215C102.223 25.3703 103.375 22.5883 103.375 19.6875C103.375 16.7867 102.223 14.0047 100.172 11.9535C98.1203 9.90234 95.3383 8.75 92.4375 8.75C89.5367 8.75 86.7547 9.90234 84.7036 11.9535C82.6524 14.0047 81.5 16.7867 81.5 19.6875C81.5 22.5883 82.6524 25.3703 84.7036 27.4215C86.7547 29.4727 89.5367 30.625 92.4375 30.625Z" fill="white" stroke="white" stroke-width="8.75" stroke-miterlimit="2"/>
<path d="M118.688 52.5C120.428 52.5 122.097 51.8086 123.328 50.5779C124.559 49.3472 125.25 47.678 125.25 45.9375C125.25 44.197 124.559 42.5278 123.328 41.2971C122.097 40.0664 120.428 39.375 118.688 39.375C116.947 39.375 115.278 40.0664 114.047 41.2971C112.816 42.5278 112.125 44.197 112.125 45.9375C112.125 47.678 112.816 49.3472 114.047 50.5779C115.278 51.8086 116.947 52.5 118.688 52.5Z" fill="white"/>
<path d="M64.0001 52.4998L59.0344 77.131C58.9274 77.7972 58.6678 78.4295 58.2759 78.9787C57.8839 79.5279 57.3703 79.9789 56.7751 80.2967C56.1799 80.6144 55.5193 80.7901 54.8449 80.8102C54.1705 80.8302 53.5006 80.6941 52.8876 80.4123L37.7501 74.3748M112.125 65.6248L80.9751 41.7154C79.2907 40.4685 76.9719 40.5998 75.4188 41.9998L64.8313 51.6904C64.5896 51.9089 64.3999 52.1789 64.2764 52.4805C64.1528 52.7821 64.0985 53.1075 64.1173 53.4329C64.1362 53.7582 64.2279 54.0752 64.3855 54.3604C64.5431 54.6457 64.7628 54.8919 65.0282 55.081L85.8751 70.3279C87.4501 71.4873 88.0844 73.5654 87.3844 75.4029L79.5751 96.2498" stroke="white" stroke-width="8.75" stroke-miterlimit="2" stroke-linecap="round" stroke-linejoin="round"/>
</mask>
<g mask="url(#mask0_143_17519)">
<path d="M29 0H134V105H29V0Z" fill="#685648"/>
</g>
</svg>
