<svg width="17" height="34" viewBox="0 0 17 34" fill="none" xmlns="http://www.w3.org/2000/svg">
<path fill-rule="evenodd" clip-rule="evenodd" d="M12.7102 29.75C12.7102 30.8772 12.2625 31.9582 11.4654 32.7552C10.6684 33.5522 9.58742 34 8.46025 34C7.33307 34 6.25207 33.5522 5.45504 32.7552C4.65801 31.9582 4.21025 30.8772 4.21025 29.75C4.21025 28.6228 4.65801 27.5418 5.45504 26.7448C6.25207 25.9478 7.33307 25.5 8.46025 25.5C9.58742 25.5 10.6684 25.9478 11.4654 26.7448C12.2625 27.5418 12.7102 28.6228 12.7102 29.75V29.75ZM16.4927 10.9629C16.1939 10.6644 15.7888 10.4968 15.3665 10.4968C14.9441 10.4968 14.5391 10.6644 14.2402 10.9629L10.054 15.1491V1.59375C10.054 1.17106 9.88608 0.765685 9.5872 0.466799C9.28831 0.167912 8.88293 0 8.46025 0C8.03756 0 7.63218 0.167912 7.33329 0.466799C7.03441 0.765685 6.8665 1.17106 6.8665 1.59375V15.1491L2.68025 10.9629C2.37812 10.6814 1.97852 10.5281 1.56563 10.5354C1.15274 10.5427 0.758801 10.7099 0.466798 11.0019C0.174796 11.2939 0.00753326 11.6879 0.000248301 12.1008C-0.00703666 12.5137 0.146225 12.9133 0.427745 13.2154L7.33399 20.1216L8.46025 21.25L9.58649 20.1238L16.4927 13.2175C16.6408 13.0695 16.7583 12.8938 16.8385 12.7003C16.9186 12.5069 16.9599 12.2996 16.9599 12.0902C16.9599 11.8808 16.9186 11.6735 16.8385 11.48C16.7583 11.2866 16.6408 11.1109 16.4927 10.9629V10.9629Z" fill="#F0B18E"/>
</svg>
