<svg width="62" height="62" viewBox="0 0 62 62" fill="none" xmlns="http://www.w3.org/2000/svg">
<path fill-rule="evenodd" clip-rule="evenodd" d="M35.7102 31.75C35.7102 32.8772 35.2625 33.9582 34.4654 34.7552C33.6684 35.5522 32.5874 36 31.4602 36C30.3331 36 29.2521 35.5522 28.455 34.7552C27.658 33.9582 27.2102 32.8772 27.2102 31.75C27.2102 30.6228 27.658 29.5418 28.455 28.7448C29.2521 27.9478 30.3331 27.5 31.4602 27.5C32.5874 27.5 33.6684 27.9478 34.4654 28.7448C35.2625 29.5418 35.7102 30.6228 35.7102 31.75ZM39.4927 12.9629C39.1939 12.6644 38.7888 12.4968 38.3665 12.4968C37.9441 12.4968 37.5391 12.6644 37.2402 12.9629L33.054 17.1491V3.59375C33.054 3.17106 32.8861 2.76568 32.5872 2.4668C32.2883 2.16791 31.8829 2 31.4602 2C31.0376 2 30.6322 2.16791 30.3333 2.4668C30.0344 2.76568 29.8665 3.17106 29.8665 3.59375V17.1491L25.6802 12.9629C25.3781 12.6814 24.9785 12.5281 24.5656 12.5354C24.1527 12.5427 23.7588 12.7099 23.4668 13.0019C23.1748 13.2939 23.0075 13.6879 23.0002 14.1008C22.993 14.5137 23.1462 14.9133 23.4277 15.2154L30.334 22.1216L31.4602 23.25L32.5865 22.1238L39.4927 15.2175C39.6408 15.0695 39.7583 14.8938 39.8385 14.7003C39.9186 14.5069 39.9599 14.2996 39.9599 14.0902C39.9599 13.8808 39.9186 13.6735 39.8385 13.48C39.7583 13.2866 39.6408 13.1109 39.4927 12.9629Z" fill="#F0B18E"/>
</svg>
