<svg width="76" height="76" viewBox="0 0 76 76" fill="none" xmlns="http://www.w3.org/2000/svg">
<path d="M70.6715 18.8123C68.2573 19.9097 65.6549 20.6309 62.9584 20.9758C65.7176 19.314 67.8497 16.6803 68.853 13.5135C66.2506 15.0812 63.366 16.1786 60.3247 16.8057C57.8477 14.1092 54.3674 12.5415 50.4167 12.5415C43.0485 12.5415 37.0285 18.5615 37.0285 25.9924C37.0285 27.0585 37.1539 28.0932 37.3734 29.0652C26.2113 28.5008 16.2721 23.1392 9.65632 15.0185C8.49622 16.9938 7.83778 19.314 7.83778 21.7596C7.83778 26.4314 10.1893 30.5701 13.8264 32.9217C11.6003 32.9217 9.53091 32.2946 7.71236 31.354V31.4481C7.71236 37.9697 12.3528 43.4254 18.4982 44.6482C16.5252 45.1881 14.4538 45.2632 12.4468 44.8676C13.2984 47.5405 14.9663 49.8793 17.2159 51.5553C19.4655 53.2312 22.1837 54.1601 24.9885 54.2112C20.2341 57.9751 14.3406 60.0096 8.27674 59.9804C7.2107 59.9804 6.14465 59.9176 5.07861 59.7922C11.0359 63.6174 18.1219 65.8436 25.7097 65.8436C50.4167 65.8436 63.9931 45.338 63.9931 27.5601C63.9931 26.9644 63.9931 26.4 63.9617 25.8043C66.5955 23.9231 68.853 21.5401 70.6715 18.8123Z" fill="#685648"/>
</svg>
